<mxfile host="app.diagrams.net" modified="2021-04-29T01:43:08.172Z" agent="5.0 (Windows NT 10.0; Win64; x64) AppleWebKit/537.36 (KHTML, like Gecko) Chrome/90.0.4430.93 Safari/537.36" etag="ihMe_3oJxjfFha404y_R" version="14.6.6" type="github">
  <diagram id="NjkLz4sMmX9liQ0MeE1o" name="Page-1">
    <mxGraphModel dx="868" dy="460" grid="1" gridSize="10" guides="1" tooltips="1" connect="1" arrows="1" fold="1" page="1" pageScale="1" pageWidth="1169" pageHeight="827" math="0" shadow="0">
      <root>
        <mxCell id="0" />
        <mxCell id="1" parent="0" />
        <mxCell id="p8_fw8Z9I097jKPXDyDo-16" style="edgeStyle=orthogonalEdgeStyle;shape=link;rounded=0;sketch=0;orthogonalLoop=1;jettySize=auto;html=1;entryX=1;entryY=0.5;entryDx=0;entryDy=0;shadow=0;startSize=0;endSize=0;strokeColor=#000000;" parent="1" source="p8_fw8Z9I097jKPXDyDo-2" target="p8_fw8Z9I097jKPXDyDo-5" edge="1">
          <mxGeometry relative="1" as="geometry">
            <Array as="points">
              <mxPoint x="390" y="280" />
            </Array>
          </mxGeometry>
        </mxCell>
        <mxCell id="p8_fw8Z9I097jKPXDyDo-2" value="&lt;b&gt;Tangible Benefits&lt;/b&gt;" style="rounded=1;whiteSpace=wrap;html=1;" parent="1" vertex="1">
          <mxGeometry x="280" y="170" width="120" height="60" as="geometry" />
        </mxCell>
        <mxCell id="p8_fw8Z9I097jKPXDyDo-14" style="edgeStyle=orthogonalEdgeStyle;rounded=0;orthogonalLoop=1;jettySize=auto;html=1;shape=link;endSize=0;startSize=0;sketch=0;shadow=0;" parent="1" source="p8_fw8Z9I097jKPXDyDo-3" target="p8_fw8Z9I097jKPXDyDo-2" edge="1">
          <mxGeometry relative="1" as="geometry">
            <Array as="points">
              <mxPoint x="430" y="160" />
              <mxPoint x="340" y="160" />
            </Array>
          </mxGeometry>
        </mxCell>
        <mxCell id="p8_fw8Z9I097jKPXDyDo-15" style="edgeStyle=orthogonalEdgeStyle;shape=link;rounded=0;sketch=0;orthogonalLoop=1;jettySize=auto;html=1;entryX=0.5;entryY=0;entryDx=0;entryDy=0;shadow=0;startSize=0;endSize=0;strokeColor=#000000;" parent="1" source="p8_fw8Z9I097jKPXDyDo-3" target="p8_fw8Z9I097jKPXDyDo-4" edge="1">
          <mxGeometry relative="1" as="geometry">
            <Array as="points">
              <mxPoint x="430" y="160" />
              <mxPoint x="525" y="160" />
            </Array>
          </mxGeometry>
        </mxCell>
        <mxCell id="p8_fw8Z9I097jKPXDyDo-3" value="&lt;b&gt;Project Benefits&lt;/b&gt;" style="rounded=1;whiteSpace=wrap;html=1;" parent="1" vertex="1">
          <mxGeometry x="370" y="80" width="120" height="60" as="geometry" />
        </mxCell>
        <mxCell id="p8_fw8Z9I097jKPXDyDo-21" style="edgeStyle=orthogonalEdgeStyle;shape=link;rounded=0;sketch=0;orthogonalLoop=1;jettySize=auto;html=1;entryX=0;entryY=0.5;entryDx=0;entryDy=0;shadow=0;startSize=0;endSize=0;strokeColor=#000000;" parent="1" source="p8_fw8Z9I097jKPXDyDo-4" target="p8_fw8Z9I097jKPXDyDo-9" edge="1">
          <mxGeometry relative="1" as="geometry">
            <Array as="points">
              <mxPoint x="480" y="280" />
            </Array>
          </mxGeometry>
        </mxCell>
        <mxCell id="p8_fw8Z9I097jKPXDyDo-4" value="&lt;b&gt;Intangible Benefits&lt;/b&gt;" style="rounded=1;whiteSpace=wrap;html=1;" parent="1" vertex="1">
          <mxGeometry x="465" y="170" width="120" height="60" as="geometry" />
        </mxCell>
        <mxCell id="p8_fw8Z9I097jKPXDyDo-17" style="edgeStyle=orthogonalEdgeStyle;shape=link;rounded=0;sketch=0;orthogonalLoop=1;jettySize=auto;html=1;entryX=1;entryY=0.5;entryDx=0;entryDy=0;shadow=0;startSize=0;endSize=0;strokeColor=#000000;" parent="1" source="p8_fw8Z9I097jKPXDyDo-5" target="p8_fw8Z9I097jKPXDyDo-6" edge="1">
          <mxGeometry relative="1" as="geometry">
            <Array as="points">
              <mxPoint x="390" y="280" />
              <mxPoint x="390" y="360" />
            </Array>
          </mxGeometry>
        </mxCell>
        <mxCell id="dPImJpLXpQVnMfvzIG0--4" style="edgeStyle=orthogonalEdgeStyle;rounded=0;orthogonalLoop=1;jettySize=auto;html=1;endArrow=none;endFill=0;entryX=0.57;entryY=-0.15;entryDx=0;entryDy=0;entryPerimeter=0;" edge="1" parent="1" source="p8_fw8Z9I097jKPXDyDo-5" target="dPImJpLXpQVnMfvzIG0--2">
          <mxGeometry relative="1" as="geometry">
            <mxPoint x="127" y="369" as="targetPoint" />
          </mxGeometry>
        </mxCell>
        <mxCell id="p8_fw8Z9I097jKPXDyDo-5" value="Process Improvement&lt;br&gt;&lt;b&gt;&lt;font color=&quot;#00cc00&quot;&gt;$150,00&lt;/font&gt;&lt;/b&gt;" style="rounded=1;whiteSpace=wrap;html=1;" parent="1" vertex="1">
          <mxGeometry x="220" y="250" width="150" height="60" as="geometry" />
        </mxCell>
        <mxCell id="p8_fw8Z9I097jKPXDyDo-19" style="edgeStyle=orthogonalEdgeStyle;shape=link;rounded=0;sketch=0;orthogonalLoop=1;jettySize=auto;html=1;entryX=1;entryY=0.5;entryDx=0;entryDy=0;shadow=0;startSize=0;endSize=0;strokeColor=#000000;" parent="1" source="p8_fw8Z9I097jKPXDyDo-6" target="p8_fw8Z9I097jKPXDyDo-7" edge="1">
          <mxGeometry relative="1" as="geometry">
            <Array as="points">
              <mxPoint x="390" y="360" />
              <mxPoint x="390" y="440" />
            </Array>
          </mxGeometry>
        </mxCell>
        <mxCell id="dPImJpLXpQVnMfvzIG0--8" style="edgeStyle=orthogonalEdgeStyle;rounded=0;orthogonalLoop=1;jettySize=auto;html=1;endArrow=none;endFill=0;strokeColor=#000000;" edge="1" parent="1" source="p8_fw8Z9I097jKPXDyDo-6" target="dPImJpLXpQVnMfvzIG0--2">
          <mxGeometry relative="1" as="geometry">
            <Array as="points">
              <mxPoint x="210" y="370" />
              <mxPoint x="210" y="370" />
            </Array>
          </mxGeometry>
        </mxCell>
        <mxCell id="p8_fw8Z9I097jKPXDyDo-6" value="Productivity Gain&lt;br&gt;&lt;b&gt;&lt;font color=&quot;#00cc00&quot;&gt;$300&lt;/font&gt;&lt;/b&gt;" style="rounded=1;whiteSpace=wrap;html=1;" parent="1" vertex="1">
          <mxGeometry x="220" y="330" width="150" height="60" as="geometry" />
        </mxCell>
        <mxCell id="p8_fw8Z9I097jKPXDyDo-20" style="edgeStyle=orthogonalEdgeStyle;shape=link;rounded=0;sketch=0;orthogonalLoop=1;jettySize=auto;html=1;entryX=1;entryY=0.5;entryDx=0;entryDy=0;shadow=0;startSize=0;endSize=0;strokeColor=#000000;" parent="1" source="p8_fw8Z9I097jKPXDyDo-7" target="p8_fw8Z9I097jKPXDyDo-8" edge="1">
          <mxGeometry relative="1" as="geometry">
            <Array as="points">
              <mxPoint x="390" y="440" />
              <mxPoint x="390" y="520" />
            </Array>
          </mxGeometry>
        </mxCell>
        <mxCell id="dPImJpLXpQVnMfvzIG0--6" style="edgeStyle=orthogonalEdgeStyle;rounded=0;orthogonalLoop=1;jettySize=auto;html=1;endArrow=none;endFill=0;" edge="1" parent="1" source="p8_fw8Z9I097jKPXDyDo-7">
          <mxGeometry relative="1" as="geometry">
            <mxPoint x="130" y="400" as="targetPoint" />
          </mxGeometry>
        </mxCell>
        <mxCell id="p8_fw8Z9I097jKPXDyDo-7" value="Increase in Revenue&lt;br&gt;&lt;b&gt;&lt;font color=&quot;#00cc00&quot;&gt;$900&lt;/font&gt;&lt;/b&gt;" style="rounded=1;whiteSpace=wrap;html=1;" parent="1" vertex="1">
          <mxGeometry x="220" y="410" width="150" height="60" as="geometry" />
        </mxCell>
        <mxCell id="dPImJpLXpQVnMfvzIG0--7" style="edgeStyle=orthogonalEdgeStyle;rounded=0;orthogonalLoop=1;jettySize=auto;html=1;entryX=0.6;entryY=1.05;entryDx=0;entryDy=0;entryPerimeter=0;endArrow=none;endFill=0;" edge="1" parent="1" source="p8_fw8Z9I097jKPXDyDo-8" target="dPImJpLXpQVnMfvzIG0--2">
          <mxGeometry relative="1" as="geometry" />
        </mxCell>
        <mxCell id="p8_fw8Z9I097jKPXDyDo-8" value="Control over Costs&lt;br&gt;&lt;b&gt;&lt;font color=&quot;#00cc00&quot;&gt;$150&lt;/font&gt;&lt;/b&gt;" style="rounded=1;whiteSpace=wrap;html=1;" parent="1" vertex="1">
          <mxGeometry x="220" y="490" width="150" height="60" as="geometry" />
        </mxCell>
        <mxCell id="p8_fw8Z9I097jKPXDyDo-22" style="edgeStyle=orthogonalEdgeStyle;shape=link;rounded=0;sketch=0;orthogonalLoop=1;jettySize=auto;html=1;entryX=0;entryY=0.5;entryDx=0;entryDy=0;shadow=0;startSize=0;endSize=0;strokeColor=#000000;" parent="1" source="p8_fw8Z9I097jKPXDyDo-9" target="p8_fw8Z9I097jKPXDyDo-10" edge="1">
          <mxGeometry relative="1" as="geometry">
            <Array as="points">
              <mxPoint x="480" y="280" />
              <mxPoint x="480" y="360" />
            </Array>
          </mxGeometry>
        </mxCell>
        <mxCell id="p8_fw8Z9I097jKPXDyDo-9" value="&lt;b&gt;&lt;font color=&quot;#00cc00&quot;&gt;Increase Customer Satisfaction&lt;/font&gt;&lt;/b&gt;" style="rounded=1;whiteSpace=wrap;html=1;" parent="1" vertex="1">
          <mxGeometry x="500" y="250" width="150" height="60" as="geometry" />
        </mxCell>
        <mxCell id="p8_fw8Z9I097jKPXDyDo-23" style="edgeStyle=orthogonalEdgeStyle;shape=link;rounded=0;sketch=0;orthogonalLoop=1;jettySize=auto;html=1;entryX=0;entryY=0.5;entryDx=0;entryDy=0;shadow=0;startSize=0;endSize=0;strokeColor=#000000;" parent="1" source="p8_fw8Z9I097jKPXDyDo-10" target="p8_fw8Z9I097jKPXDyDo-11" edge="1">
          <mxGeometry relative="1" as="geometry">
            <Array as="points">
              <mxPoint x="480" y="360" />
              <mxPoint x="480" y="440" />
            </Array>
          </mxGeometry>
        </mxCell>
        <mxCell id="p8_fw8Z9I097jKPXDyDo-10" value="Increase Staff Confidence" style="rounded=1;whiteSpace=wrap;html=1;" parent="1" vertex="1">
          <mxGeometry x="500" y="330" width="150" height="60" as="geometry" />
        </mxCell>
        <mxCell id="p8_fw8Z9I097jKPXDyDo-11" value="Increase Compliance" style="rounded=1;whiteSpace=wrap;html=1;" parent="1" vertex="1">
          <mxGeometry x="500" y="410" width="150" height="60" as="geometry" />
        </mxCell>
        <mxCell id="p8_fw8Z9I097jKPXDyDo-25" value="" style="shape=image;verticalLabelPosition=bottom;labelBackgroundColor=#ffffff;verticalAlign=top;aspect=fixed;imageAspect=0;image=data:image/png,iVBORw0KGgoAAAANSUhEUgAAAWgAAAC0CAYAAAC5brY1AAAAAXNSR0IB2cksfwAAAAlwSFlzAAALEwAACxMBAJqcGAAAT/VJREFUeJztnQV0FVcTxy8uLVZavAUKVGhxWigUlyIFigcITvEgQQIELe7uUDzEnRAnITgB4gIJSQgRHIpLMt+dt/uSzb7dl5cQpF/nf84c2ryVu/bb2blz5zJGIpFIJBKJRCKRSCQSiUQikUgkEolEIpFIJBKJRCKRSCQSiUQikUgkEolEIpFIJBKJRCKRSCQSiUQikUgkEolEIpFIJBKJRCKRSCQSiUQikUgkEolEIpFIJBKJRCKRSCQSiUQikUgkEolEIpFIJBKJRCKRSCQSiUQikUgkEolEIpFIJBKJRCKRSCQSiUQikUgkEolEIpFIJBKJRCKRSCQSiUQikUgkEolEIpFIJBKJRCKRSCQSiUQikUgkEolEIpFIJBKJRCKRSKT/HyWlmn8aGNF21rnQptM/dFtIJBKJJFFc4pBKgRGt1p0NbbY0MnHKpx+6PSQSiUTiupE09tOr11uPPx9a545/UOPQS7F9ekXc/Kvwh24XiUQi/ScEN02qc6vJrYb07zdTTIvExHftGhZV7VLA5dLgHlgVfMPquZy9NqBx2M2VBbTLmV+OKmZyPuxrbjVNL0ZUfv9HQCKRSP8icdh+wu0HSBj8E8T17ATXu/WAa82MILrhIIj4eggEFxkOQWyExqJ+OABRdY5C4th52vVTUs3zx1xv1SA8qqr7lbBCgIB2vfgluAZ9/cYjrOVh36h+NbXLckCXNvK/vLau80mL7xz9trEDriPQih52G17b0W9wQ5eAQb8eP9O/54nAboNOXmk35mxIwykXwmtxmH/yYc4OiUQivWNBsll5DuF6kGD8O8T36QvRDcZDRNWJHLpTIbTkIoj81gEiv/Hl/0Zzu8l/ewThlZ9BaNnXEFwwnS8HGRZRNRxujOiL203lcL4e16lWZFT1/cEczldCGZy8XAacLlQFu8BKYH+5zkvXsK4bPaNGVNK2paPX+Slf2vrc5WAGrRU8dCy9vJXXy8o23s+q2fk84PCO58AO+d7Rz7Om/QmLkhbuC/lyU7+1PzGhueup0b28zvcbceJSB5OTQfXNz4ZRrJtEIn384iAuBUlT6kDCoJ5wvcs4uNpkBoQUnw9hn++EiGrHILJWBETWjIewCs8htNSrLODNzoILA4RXcoaEIT1xXxzO+eLju38dHf3twdDwkm+COJwR0P6XyoD9+epgxb3oIxeqg+Wlpo8dQ/tvcI0YU17bTg7pCRy8V6SQNsTKWni8rHLU80lNS6+EWhael6sfdHcrscNxXdkdTvObWHhP7+l4auSwY2e7TfYK/N7cL6jYh7sSJBLpPy1IMi0ONyc2h/iBwyCmrTlEfL0SQsvs5vB1g4ivIiD8y7sQVv6ZjgecGwst8xoivz7A4Vyf7zdfSrJpvsQbg5tFRpSzDg8r8SY4hAECOkgD6M/A9lwNsLhQDQ6crwl7zn0P+y+2enLgco+/HSKm1AiI35Ef2z8kIKhTDXtftyKH3AyH9D4XYHucgO1yBLbdHthWO8i32RaKbrZLL7/D6WnVnc7JVbc7hZbbaOv82Vrrrd9scVjZ/oCn2VC7AKPJrufqmblfJGiTSKS8F6SYl4XEMX0grudsiKq9FYILHYawcmcgvHIcB/EjCCnxGoILvB2IlSyi+g2+PzOI71ede+gauCYnjuwfHVnlVHhoIQjlcA7hpoW036WyYHX2Gzh4vgbsPfct7Dz7I2w50wC2nG35ZnegkZNL9IpWnrFb85ucD8s3OOBKg+p2vsuq2Hg/zi2gGQc022ANbJ0VsNVHga20ALbsCBRcdiS95Mqjr8uvtnpQaZVVdNklR3xLLjh4qNFG+00993nMGW8T0MXE7lT+d3KxjBYV4FaWW01uZd7JPkgko0XFuVXn9h23itwKfugm/WcFwY33QNgX0RzKdzUwzmsQ63jNpbnX/I0jxLbvDfF9S2jbcTOh7/zoiM+jw0MLQhiHshzQJzigLc5+B/vOfQO7zv4AW8/Ugw2nG8PqU01h9ekOaevO9r3kEL12KG7L/HJUPiP/y583dzs99FsHv4DC2XnTOQA0W3II2KIDwBbsBzZvH7A5e6HA7L1Qev7+l+UWHLxbdsau0OYrLcfkycUxWpSP2zfcxnLbzM2e23FuJ7gd43aU2ypu/bhV0QD8/11Giz7htoKbncx2cWvzoZv3r5TRokLcWnKbwW0vN2duvtz8uXlwc+C2idtg0TkgYL8vwYXqd+H0O4ayJtZcCCDy6yS42mgWxP5WC5JMNbnMt5NNm1yP/t7mWnjZe5EcxhHcwrnJIe0b+DkcOlMbdp/7HradqQsbTzeEtaeawIqTzWGxf2tY6N8RFgX0id96eZaFa8yRL3DbY8+GFunifaFhXeeTy7+09XnwrgDNZu0BNmMXMNOdwHrPhV+XWzi89YURQLSY2wVuN7k95QYyS+P2D7dYEdqDuP1/d27il4PRovMK5yKR27AP3bx/nQQwW3EL43aL20uFcwvi/Rcv3o/LuFXWOBCkdys4U/EZuL5jOId9/hyuNrbkYG7LveZS2n2nJPSdHRteJuRqaNFXURzC2QF6/+kfYcfZOrD5TANYd+onWBnQDJb4t4IFfu1gzonfYKZvVzDzM3o56+SIs0ci9gzCfXBvOn+vE4FlO3ie61XP2d+7lIX763cGaJMtwJqNhGZLDgW+1UUxWlSemxO3ByoPi5KliSAfr4H7/6sI0Hkno0Xm3GL0QFnN8L704daIIP2OBacrPAcbDtGAd+E1F0mHyFqX4XrXARDb+QtINtN8Gt1NMmlzI/qb47FhJR5cDcmXHs0BHCVahAqkvS9+AXtP14UtZ+rD+tONYVVAU1h2sgUs8m8Lc090BDPfLmDq0x1MvHvDeO8BaRN9R6UuOrfI9mi07Te4T5PzYYXbeJyt2N7z3OQa9r7xhQ4dy3tA95wNrOEg+GXxweC3uihGiyy4vcjhQ6O1u9w6/Ks+Q40WdRK/AK7KDL8gSsuWJUDnhYwWHcyhAyC319wiGfaJkN6dNIC25jB14nY5r8BcAFPnHsD1zmshqk4ZuGmiCWfcTzEvnRrXZXl8RPmk2NACr69x8F4VTQtpNS/aiwN6V0B92Hi6EawJaALLTzaHv/xbwzy/DjDrRGeY7tMNJnn3gnFe/eBPz4EwzGMoDPUc/Wq83+zYNZf3zNQer3HAlaLdfS/WaO1xdm9ZS8+neQboces13jOrP+DtAG20qKsI2dw+OGgYQyyV/c4+Ehkt6it+PsuPY5cOAAjQby+jRXOZEBp7m3sMLZ3bkQ99OP/XygA0etHeeQDnkGKvILbDcUgc9SXE983w4u4mjvg9Kbr2pfiQIq+vh+SDWA7dGG7XVAAth7TXhXKwIwDjzj/DipPNYLF/K5ivCW10ghm+v8MUn54wwasvjPYcACM8BoOx+wjof3w09HYbn97ffeaLqQEbfbaGOrXAtmAnYhefCwXHng1t3eTY6XPFDrq9eWtAd5oMrNGgvAC0g+idyB+GZ9wcuf3BrSO3mdyiVR4cDHfUzH5nH4kI0O9PRosaqJxrqT3kdpHbSQOWxXutzoc+rP9bZQAazZ7b2Vx7zW8gqnYi95YHa7d9/8bQ/PcTx3x5K6bVupvh5Z/HBzOI43admxzQ2XnRCOgtJ3+CVQG/wNKTLWGhX1swP9FRE3ee6vMHTPTuA2O8jGCkhzEMcR8GA47/CX3cxkGPYybQxdUUOjibQX/PVbdnn7MwX3bFtezCS24ZqXAjAoJmlTvsfqvAbqe0XAF6EL9Rmw4H1mBgXgD6qsqDcInJY8tGi4ZySxAfErn14qab7od/Ezogf+Jmym03Ny9u7kzIFBnOrQa3Ikwpviis+4v4kkBrxe0rppZBIvzeUWbNuZVgQqwd/x9DGakKx+zGrXfGesL29ANaOD5MDcMO023isWG2yyxu36u2M7O9mMpYittv3OYwoS/gpLiNZeLfCytuRzhn3ykcL1pJJmTlFBLP/WixTUW5NVVYvoV4frA9lcVj28mE2C+GwPAFXSvb48naPty/C1N2ANAeMyGL4wvJOkXFdt5RWQdtnbgsHlttleOvKjn+78XrM5JbMYU24j6/5TZKvIaYSeLJbQe3Mdx+YEIqoHo6q7AdXKY+t6niup7itnCbk7k1YdiprhZHF879Z9y6cFvIzVK8F9BR2iC2D7On3l04MQug0Zy5XcpRdsZrCC11B26MWKXd5qMkk/wPEgZ9cS+u24jUqNoxiRzICdykgL4eogtpJUBrIe15oTxs9G8ixp3bwFy/DmDm2zkj7jzOqz+M8hwEQz2GwsDjo6Cv21joeWwidHWdAh1dZkBb5znQwnE+tHBaCkbeewInn7H/fUyAY/HVIac1F8c8MLJCP+8LBwvudLhbcLt9usGAnrABWOuxmtjzOwQ0AjeACXDMJ1n2RyaknDko2NAsD69wwyLcENyn9DxsaE+YAKS6mgcqa/sQQMGy5W+IN6vugB0hM0C+/Shu9ZgAX8M/qYXt6QM0Prx9uIXq2c4EhoDVbacWhCZM/ctEa3FMAGwJ2fWowG2LyjoIg6YiJNLEv6WKD/gllX0MFs/rdZVt3uP2p+LxKN9bP+k5NuwotGVKHcwCMLdye66yboy4HObo71JZZhoT4H1EvL9AvI5lJPspIp4nTCVVylqS2gkmhAOzXgNhO/gCbSEuk9195Snus7Bk/XzisYzjFp7N+k/Fc/OVTjvyQjqAtuXmYUA8GkcSBhe+DbEdj0HStKra7T1MMCp273rHn+9ca3o4OaxU2k0OYwT0DQVIKwFazYv24IBe5/eLGHduD7NPdILpPr/DZO+eMF6MOw/3GAKD3EdCv+NjoJfbBOjmOhk6uUyHds6zoKXjPPjFYRE0tl8K9e1WQWuXnc/7elutGhng9uPY094ZF8fsXFjDBlY+l4pus3+QPztAz9gBrMsUYI0Hv2tAo93ntpYJUMaH+guGHWiCl5CdV5hPvIE2MiFUYigU0aPqqXlwMrelBGg0TNX6VmHf7wvQKdy8uV3LZjuvuBnL2ohe3c9MyDM3NKMBl0NPtqpkO/oAjV8m2KmWLvmbPkBjRg7CI7sQwyOGefCG3VuYtXFPZTu4P/U8cuHFjmGPuwqWxIQvF32Axr9j34jUe88ENL7chRfSE5X11eA4n1s5STsLcmvHhBecodvBfXZiWo9c+IJanYP1taCvpHju3kY6gEaz4+ajBun8ACGfPIaI6oEQP8BIm8/8zw3jfI8S+n5372r9UXeiaj1M5gBOEu2mBNBaSGu96BgDvWj3CxVgtV/zjJS6Gb5dYYrPHzDBuy+MEePOg91HgJEQd4buxyZBZxdTaO9sBq0dzaG5w0L42X4JNLBbCT/aroVvbTZCDaut0P64zdU2bo69RwScrDzz4kXNBRp74nKBgR7np5fZ7hjxySbb54qAnrULWO/ZwJoOA9bIOC8BHSh7iJWgiQ8Kfm4hsCdoHixhQAt+jil9eiPUNubwhpPur1fGdtUBjSGSBgr7fl+ANtTw3KKH/Ym4PQRLHSZ8dahBADvUXihcF3zZ7WXaDln9gI5kupk5+gBtqKE3fobhizr7e2s/U/aCcRunslm3KhP6CkYrGIYqMFSgD9CPmK5zcF68nvj1YvwW52BlxvELX0FhCsvgi+Gh2A6lEE+weAx4P3RWuW+w/ffEe0LpGZ3K8nqwmCKg0Ry4+csgHVLsNYR9fhVi2m2BBOOMt8XTZLNSD642avfgWpPzt0KLpady+KZwS5YA+m29aAT0yhMtNXFnIaWuhya0MRbjzp5Z485/HDOBrq5ToaPLTGjjNAd+dZwPTewXQ0O7FVDXdg18Z7MBalpvgapWO6HS0b1Q0+ZoWiu340d6+ga0mhkYprnQ5mdC84/0ulC7hZWPRYmNtolF1limZQB67h5gQ/4C1mo0sJ+GcA86TwG9ROFGzs7wwUewL2XCp11xyfbwhuulsk1cL47bZW4hTPCG0hSWw/BBbXF7eQnotmK7caCNkueKcc8gcZlAcXvZARqPCcGXorJNEB/UDpLtmTNdeOJ5wHAAAhhfhAeY4M3KH0z0HoeJ29IHaCUzBNDPxWPBZdVix9iG1gbcW94q67/UHOfbSj+glUwLaPwqVPKcX4vHjvfbFSZ4+a8UlkNgYt8A3uvdVc4hvsSWMwHmFxWuNxqGOvBr6ojCb3gfo1OEGTC7xbbIl8FBPHk7mYgqoNEctZBGr7nELYj6wQXienaHZLOMONXj+L6/PIj8bvb9iGpPbnPg3uImB3SSAqC1kI410Is+fr4iLDvRWpNSN02SUpcRd3YfBf3EuPPvrlPgN4w7O82GFo7zoKnDImhktwzq2a6G2jbroZb1ZqhmtR0qW+6Bckf3w2dHDkOJw5bQ0MUr4RsH3wljz4bU1h6fic+l0t3tT46qtsPJu8Raq3/Y/L3Ahi0G1mYs956HAvt5SF6HOPAmiVEAgaEWzoQOpSLi9jBurRRzxofyBBM8F+xIwY6/BUzodJTv+w1DD1zYXl4CGjvOsMMHOyuTFJazYUKH4g8aE7anD9AIXmdxe1OYMBxe6cHHv5mID3QzpuxxIZzRYywmORaMcctfdAgRR/E8GwJoXB5fPBFM6FfQB2gMa+EwduzQQu8MP6OVPGB8sY424N5SAzQe08Jc37OZ2zcE0HgvYf41hvKsxHtgn8pyeC9j7LoJE7JPMCZ8RfxNvjweG3riZgq/pYj3RFGxnb3F5SNkNoAJ8eszCtvAv7UQ94GeNnYYhyps4z0CWttpeL7Mc7j6yw5IHFtNu96zJNNKj6J+6Pswuu6lu0H50u9wD1sLaCVIq3rRKp2Fcki7cUAv9m0L031/h8k+GHcWUuqGZ6TUyeLOTrOgleNcaOawEH6yXwL17VbCD7br4BvrTVDdaht8abkbKhzdB2UtDkHJI0eh2CFbKHjQEYoedkuv7+Tv3PLYqV7mgZEZnqiR46naDXa6OBWbtD6NdRgPrNlwIbyR14DW7ExzM0Vlc6Prs2QmgA1jzz+pLHNVc0Nm3S920mBvtxxq6WJ7MN6dd4DOXCYv0uzQXBl2bGYui55ZCNN94WgB/an4r9K2djKhk7SCxLCAkFKHHQK2Dsse0BHidhEiPZgQ99QHaBvN+c48Hnyp3VBY7m0BjefD1OD7U3372QEav5TQO8W4cX8mDDPH41caMHObCVk00s47hCe+eJVe5viSwfDGQoXfXojHjtcavyaxI3k6t0nif/cQ7XumDmi8j/Frari4LIZ18OUxQtymdht5WyhNL6Ax7c6T28WyTyCq3n6I7VQPUswLPo3v2/KfyO82Pgwrf+9+UH64x+F8l9ud4ExIGwJoKaS1gFbzoo+dqwQLfdpnSakb4WEMg92Ha+LOfdzGQ49jkzJS6lo7Ydx5Afxsvxga2K2AHzWhjY1Qw3orfGW5Cyoe/Rs+tzgIpY5YwCeHbaDQIQfId8AF2H5XyLfPBapZe6d+beVlNvZUUD1Tt/PFO/x9vF3V5Rb2JSZvfMN6zADWcnQmoH8aLORA5x2gi4o3MPaqI8xyOhQX7RATPtdMVX7HmGtFhX1jnnWCwvIYe/uWfbyAxlg5pp4VlC2PHX/yz2ItoDGNTQ2o6N1uF3+XmhIg0dvGVCx9gEZvayCTe1jqgMZYKXqMBWTLY5qXPAz1toBGr3xttutnv319gMavQoTr57J1uitcHxDvsSYK+8CX5mmVfeB9NEjlNzT8ekkVt43FoP5mAmRbM222kvDMOOvZBr4IMLyBYRJ8htZwG8KElMe8r2KpNwbti3AW48+hpV+kh1VzfRHy7cLHEbVOPQou8vIB//t9bhmA1uNF38xFLDpKAmkE9DzvjmLcuT+MzJJSJ4k7O2fGnZs6/AWN7JZDXdvV8L3N+sy4s+Ve+MLiAJQ+cgQ+PWwFRQ7ZQ/6DzsAQ0DiqcK8z5ONWfJ/Ls28sPFzqbbZdXGXF0dNF5+9PZ2Z7gJlsAtZ3rhCDbiIFdB4MVJFK8NjwDT+P2x4meIhnmeDFZTcSDD0Q9IiXqPyuHHMUvDQl7/0+Ez41P1ZAKw9UEb4I5GEJLaArMWHIc05ffnJDzxBfqPoAjd5gCYX26Uuz66uw/GGm+8I2FNCYV67Ux4DgcjJgfeyIRq+3tcxacfuS6Qf0Fs350d2mCVOOrWNYrpzC8phh4aqyD6zGh6l8SvFhNcNzeY4JLw8MU2EIY0wOrz9+sWK4BsNleZtqpwhobexZkg+dHsjglX/h9CdepV4/Olko7eFlBg/533UgnUMvOi6bUIcW0K7nKsMcr04ZKXXDJCl1GXFn5xnQzmm2JKVuGdSzWwW1bdZlxJ2rWO6B8hh3thDizkUP2UGBg04CnPdz+9tZGPa9m9sWayg4a0tamXErXhScsBaY2S5gs/eCBtJTtvILM5970n8KHYXaTI68BLRWwk2DMKkrPgy9xRsb07yUBnhojQD98QC6A1POsHmfgN6rcC7QtJktVfSsi5/+2AmN3utZmSFMuzL9gJ6ucvwIVSVA+zK1eK4Ql1faB3bg4dcnfjXezuE1xHPYW3JN0IvOaT2cEwy/yvJSOoBGz/lk1uyNtPMMXnoyeGrP4B++zEO+zEMvDueLCoAOygpoLaST3sKLRkB7BtZ6Pd+v3+uscefR0EuTUjcZOrtMh/aKcee18K31RvhaE3felSXuXPyQLRQ66CiGNkQ4c89ZA+c1h4GNXwGs93RgXScB68n/Hb4UmOl2YWj3zN0c0tv4RVkA7NdRmZkc9QfmHtBCXWcc5fS3zNYzKdCEZfFTDD+rrPTcMPoAfUDxARDygZVysXMOaOFh+bcCGjujnAw0jCv/yvQDurHKNX+fgMaQidoLHePA6nFo4cWtFlp4KR6/PkBPUdnuRKYMaPRqqyosj6mkbir7wOPTDsgays2aCXnxhoYIXcV9oEOEzhC+PPBFoW8Updz6Z3sdciI4UfpVlphzgATOVzicz3A4H2PwzJbBE2sR0Nzu8/+/y/9+L+D9eNEng+s9/OvU6PsjNCl1w7MO5XbJjDv/6rAgI6WujphSV8N6C3xltRMqHsXQxkEoLcadCx9yEEIbUjjvdAA2n0N4GAdvj6nAfudw7moCrPNE/u9kfgHmATPZKHjRCOnJHNL9uSfdbERGR+FbANqUKXeYYDxyocLyCOnNem4WBPRkld8QqEoDS7DzI1lhebxJsRNGDdCYYtRCti0sR3lfYdmPBdDlmFCIXun84AhNzG75XmYtxfZKDfNm8RP/Ywc0ZsNEqLTvjXhdezHpwCRhPRzkhE6C2iAXvMYlWe4AjedOKQYdpflNd/lWTEgLVdpHS8ly6PFjSAZDMEZMeLbwWcGh/2rAfShZH0FfQrwHsDMXnwssSYAOE3Y8q42qXJDtdciJwPvT1xkjCP0EKGd4zghnFwbPbbj3zJd5LAU0t7vc7nBv+g73ru8FqnvRSoDOUV50aEEIDKsXMPvkJG/pUO4/MLThIoQ2MO7cQht3ts+MOwuhjR0ZKXVl1OLOCOgNR4FN5F6z0SwO5ynAuk0WAN1FBPRvE4B14v/2nS3EoRHQWGYUId1thhDq4ICuY7bzaq4uhtDRlKJw0dPEhwdvFG2qEMIZR0ypDduOE2/SJiq/I4Qns6y95AgYZ4UHBj+BEYo4SksN0I/F7WkHgODDit6pkvdiKKBxn5Vl5ygvAY1ZKWrxRuwA+l5hezjgJ1Bm6EV3YB8/oPF+wCH8ap/ueN0R4Dh0GYeQY+cXdrxi/Y47TD3187DkmucU0BhTVgL/Y3Fb0lGCnzPhRfFIYXn8UistXh9vma1jQpZNRSa8ZPGaqw15L6ywPjoz08Tjw5dVQyakBiqlcC7J9jrkRBmA9pB5ztwzfunI4AWH83NrAdBPZIC+w+0Wt1QO91sc5HdOqXvRyQYOXFHyomPCP39yPabV8sl+U5cP9xyXjil1PbOk1OnGnaUpdVUsd0P5o/uEuPMRIe5c8KCTENrQlBp1BLZoJ7Dh3GvuMx3YH1MzAd1VBuiO47nxf//gQB63TgD0dCzWvxlYO/5bQ2OoOWVzfK4uhpBVEKbyILwSH1qchghTlbBeAcY+1Qa14I2MQMVUMk+F3xH6+PmHgzAwfoo1H+xUbn78BDUR26gGaDRMf8LME4TiafEhUzoWQwGNXoqT+KBikSDMhc1LQKOX1Fw8j0qAwDQ3rJ+BL0P0tnHUptIXAQIWU/o+bkAL6zdmApzUYJsmHnuKeD3vKOxPfp5+Eredc0AL6yl9BaaL+8bBIZjKNpQJL/xUlbZjxk1B8V+leyOzBouQ6RGjsBwecxGmnGaK2TO/iOvj18ImheXeEaAx7hwo6RA8y+ANh/NLKw5o60xAK3nQtxHQ3FK4Jdvzfznob1803ItOMMCLjo2oGJGSOLzX8otrJ4zzNbunGcrtikO5p2mGcmPcWWko99fWW8W4szal7igUP2wLhQ45ZsJ5o4XgNQ/kXnGfacB6TtUPaMyBbj+W2zi+7EzBk0ZIT+M2cjWwn4dCjcmbEnJ1MYSBE9jRoa9QDD5A6AGpjSoD8SauIW4TIdRe5WbSPoy3xYdcaTgzGnrpJcTtIVD0xb3xYX7GlLMF1ACNn7khBmwPwwt5B2jhd4xpLlLZN74gMCMAY/KYOaPk6eEy+5kA8X8DoBFif4rXXe365MRms8wUtdwCuppKe9LF84vHd0f8b6X7E8GK4Qx8fgYo/P5G3MY18Vri86EUVrEVr6OLwm8vJPcCwv2hSlvaGnQdDJUG0P6S4dznuffM4fyaw/mVlQBpJUDfEz1oKaCTuN3kHnciXz/lJP9NAmn5yMLsvGjt6MKY0KLp1yMr70+9ObbIvvCjNYd5zXTo4WoCXV2kKXVZ487fy4Zya1PqPjlsnRl33u0AbO4WYMPmA+s/U4BzbwS0qQDo7kohDvSexwmAbjcGWFtuf8wUvGf0ok13cKBPhxpTNucO0CjhsxtHwOkDnD5D+GTNtxW86L9yuT0czSUtCIQdf8MNXNdQDxof0MMGbO9dAFo7Ma/S8F5DDGts1BW39fEDWtgGeokIaX0veUNsBZPOgZl7QOM16Mhy99LAdXCAiLZWDH6FqsWos7OGYlta5nJ9zI3OviZKTgT+n73MgPMl7j0f496zlTKgn8gAfVcb4pAAOpHbDW7xtvzf4/zvFwRIZ9dZqOZFX48oF596Y+gIbOuRKPt8889tnWvsOf8fjDtrh3JrQxt1swzllsSds6TUcTivPQxswnJgg2YLcO43Qwht9BY9aOwc7D5ZAmgO504TMkMcCGiEc5vRwFpzG8AhP3Wb4EWP3wg1TLfkHtAo4UbfkIsbBD/VMRNEqewndnhgL3dOqoVhClVlhW1hmEOtJ11qOFLrocLf5YDGhwI7p9Q6sLSWG0AvZLphm0xAZ+4fjwk/oQ1NrcIXD8K5KdPmvqoDGuOjdXXaJqyTU0BjLQl5B1XOAC1sBzMV8MtKaeCNIVDE7At5fXI1QMez7CruCe3BOL7SKEE1Q4+4G8vqjKAX3YBlX9VQbtiJWFDcBjpJs1nOXhh4T3/D8jwPOuzHhxo4Y/zZiwOaAznNKhPSGkBbZXrQj2SAlnvQWkDHcYtFs+f/78t/v5wzLxoBfT2sxMvEaw3/lrb3YNSxMv09/rL4zcU8rWVGSp1QQlQTd7bJjDtnHcptAwV3WgKbs4l7zXM5nGdxsHI4G3E4950h8aC1gNZ60KL33EnmQWcA+k9grUbxbS4TPGjTndBhk8O5PLk4QpU6hIY2DoifZa8l9kr8O35yIYh0RwZm3R4+BD+KD1GSuK7S9jAnFmO0RfVsC4Fmq7INBC16NUVEADyXGcawdYElPKB+TACofJsITkzlwo6gAIVt4stpsMI28esBUwr/kSyLoYrxCstie7uLbXis53xjByt2GpWQrY+A3iBrF744jJmaZyVkxpxVOB6ME/dSWB5ftBgbfyZZFq/lSNVrpU/CPYH9D27iOX6l57ixTZgLjRM6KE0GgeGibbLjwPAZpnp+obB3pfbg9V0s3jfye17aDhz4oz4fopBCiZ2dNxW2I72ncKRpK6Y7AhVDHVifxlVyXpTOCbYT+3vwK/Ad1IOO/e2qBtBnmGbaKymgX0kA/UziQT+QhDjkHvRNGaCvcbvKtxvjymF8mgP6ioHDv0MLvY4PL3f8Xqq5zkXYHOrc6g/35edaOC5ME+LOKzRx54yh3FaSodyHLaDY3xZQcMVOyDd+MbAhc4AZczgPNOOANhM8aC2ge0li0BoPepLgQXdW8KDbSQDdcpQQm564UeNFD7Hw3Z2nF0noWcY8VMzymCExTB/6muWmQIvgieINOFSyPfRGahm8vcx2jZZsox2TfvbmvF1YFxhfIn9KtompUl/lepu5aweCE2PjJrLz8/87vZPwMsOvlP6SY8bjx5dWVSafvOHdtgVDaZgWOFDSFnzR1WVKX4jq28EOvSbiutrtYMocfj0YNm+n8GXQUXyRabeB7frpre51QwTx/b003jMWRbISAK2FdBYP2irTg34g6yS8JfOgExQAHYVmx//GvfTEC3zZK2qQzgfxoZ88vxFV0+dusqnuWHxRyy47DuzpsTnwF8fVL+tpUuo2ZBnKXQ7jzgcOQbGte6HArFXARnKveag5sMGzOaC5DRQ96P7oQYvhjQxAT8n0oLU50BpAcwh34B50O4kH3UoEdIuRHPIc/lO3w2jrkyZq7SaRSCSDBTdGrdOMHLTKNC2gX8kA/UQCaLkHnSx6z4qAthYAHcktnFuEE//Nn+86kK8TlAnoGyEF0m+Elb6REtNy//0U88+za/u6EO9Gfbz3WTV12nrnW+st6dW1JUSP7INSu/dAkaXrId+E+cBGcHAOlwJa9KCNtIDWetCmWT1o6SCVTqL3rA/QLUZBgQkbYIz1yZ/fx7UjkUj/54KkaZ3ARRnQOh60VVZAG+JBx8gAHcYtlFsw96bDj/NlznAwcw8+KazM46Twz/3u3Rw7KKfHMPms26y69rvPfGe772W5fTuhxMZNUHDmImCjOYhHcSiPmCvEnVUBPV0W4piSO0A3HwGlRq1MKz12TZHsW00ikUjZCG5OaqMNb0gBLY9BKwFa7kGrhjhEQEdIAc3tCv6L3vQ5vq3rncMeppjnOs64JOh8qw4ezrc/Wce9ZhMO3zEcwqM5kEfN44CelxXQg7LxoHvkAtC/CoAuNnxpWpdtDmWybzGJRCJlI0gYuleTB60AaEUP2koX0NnGoCWADhcBHWLLYe3KIPoEg3jM8Ij+9nZSZHVT7kHXy77VWTX2tHerlm4OG+o6OvxTfPc+KPjXGsg3ZTEH9HwO6Pn6Ad1P6kGbZh2kIs2B1gB6XFZAY4odZnBoAY3/TtoAf9oHtH8X14pEIv3HBHF9/TQ1nx0M9KCtsg5UUcqDVgS0tQhoWyEGfdWbg/m8OKIwBOPP3EKLvUmK/sE19fpvfe+nmutO/y7T2pBTZTt7WBi3O251sYrlvjdC1sZRKHbQGgqs3wds7mZgE5ZIAD1HHdC99QF6QmaKnQbQkhxoqQeNw79n7YbRDqemv49rRyKR/s8F19pGaQok+QsV7VTzoN/Wg0azZxDjwcF8isFN7jXfDBHgrAV0vMYKpCVGfR1381qjqff0QHptiO+X3T33LWjqtDulhvWOdHkxpMIH7SH/HntgKzmoZ6wD9ucCIcVOCdB95ICenJkDjSGOjBQ7OaDFHOgW3Nrxv09YD2zOXhhg6Ze3aXYfu4T8X6wHPIwJdQ5+YvpyqP/rElLZhokpjjiDjf78ddJ/VxBe96EG0FiLw1UZ0M8wg8OAGLRqFoetkAedwF8CSYGSPGgJnBNEQMfhAJWQ/OnxEV8k37jWcPrdVHOdPMONoZ5f9fPes6qp44Y7tbOUE8Xc50NQ8rB2jkEnod7GVmtgf+0ENnGpAGnNIBUpoOXDvLU50CaCB60P0C1FQA/kLwCz3RpAd9njdibXF0So7oW5xJ0U7Cc961UQH3yl9drkuj3ZtxcT9HGQDA4+wUEZWLPCR9wvdZbKJeRWB4jnCi1cHOhQ6UM3jfQRCs5WfqYBNOZCn+aAdhDgLA9xZAfoFBVAxzry//fhQD4vG6SiCmdhFGFsaIH0uIgKN5Kutx0nbe+eSK9Phvpun9vGZc2thlkmgtXO0n1A40Vr6m4cdID82mL8ux2BrT0EbNZGYCPmZw5S6ScdpGIqZHD0kORAZwBa7CBsrwDobnzdKVuE2Vam7YB6C/dH5fqCCIM0sGLdZQXboWc9TKR3UVnPO9ftyb69OKhBabgwtiVvZ5f4t0sYfIFwltcnweI947LfAOk/J/Ap+QrOiXWgOaTT/TicbTNrcbwQPWj5QBU1D/qGFtBYi8Od//1s5jDvLLU4sgG0UCipUFpc5Fd+t5JMMjoO/wq07N7LY01IM8fFmvkGM4vyb9WZMaUo96I101ntdxXnGuT/vc0W2NK9Qi0OHKzSL5scaC2gtRkc8mHenfly49ZyOO8RAD1sGdSYtvVtiiXhqCelkpZoXnrWQ1Aqlc0UAPCuJNTbUCrshEOla7yz/f4bJdQiVqqIh8PQ337SVtL/n8Dr09fgLgJaDHWkeXNAW2cCWmkkoWonoQ2HrhMHsT//e6BKudHsvGdJudGY8NIPEmKaa2YpOBB1/JMhPqvXd3Jd+EJbXrS+pPZzNYkXXVriRWed0opDepeDUJx/1iZgQ+YKnYTyHGhVD1oCaBzePXyZENpAOM/cxb3rCVBj6lsUS/r3ARqL5ijVC76pCX+QMiWEoZRm88CCUksly+GwaiweNURmGOfP22pppI9bGkDjbCrnMiGdfpF70Z4MXlpLAG1tgAfN4ZzM17t1gcHtK3rqQWuzNvR4zxkzqoQWSI+JqOh2K9n027VXjnQe7L3sSjvn2Zmzp+jzoqUV7DK8aO2ksI7AttoAW3EA2NilQkehUg50l4nKgMai/cOWcCjvFOCM8xRiwSSsBz3lPwVobK+vwj6x6lrpd7bff6OEwkQ4QcIbyXnCr48gzXnMXO53JlTsS5IZzuxBHYr/JWkAjel1bhIvWoT0a0+hYP8zQwCNs6qc5H+7nM2chDnwnrVTXsVEVkxOjP9j/ET/FTP7e8x7hvMPtnLKrGQnn7kba3F8ofGiLaD4YZusBfq1XjQCehe3HfbANloBm7Ze6CiUptgpDVJBQP82UYAzzvI9B+G8V1ODg7WdoJnd+z8GaCyYhFkbONUQFvbHmV7GMmF6Id2KZ/91CUWqcMolnEoJq9hhsX/s3C0kWUZthhksS6o+8zbp/08ZgLaRzEkogfQrT6GSnRzQd6Vpdsf4/wcKU13dDdYDaAmcDfKexQljr4aXfhUd/dOWgR4z13Z3nQqdNLWgxTkI7f+Chhle9EbRi9aWGpXVgdZ40c6ZXjQCGieJ3c4hvcUW2JJ9wAaZZwV0F8lUVwjoTiKcZwkZGxnec89ZwpyEDQe9bcH+jwPQQmUznOG7Gbfa2SyLnuEnTCgViVkoWLYz70svqu8foddQbCtauexXypP95hfDFtr9/qT5/+zXKyKeK2x3CaYtNp/5OwGaJCgD0FbirN5ndSH9kkP6iY1QalTuQd/1EWf0DlaHc8pbeM8I6EhuZ0IbBk3xn3sBZ1PRzuKt60ULxfqrWu0QvGhxBm+NF31Q5kXvkXrRIqS32gFbbwnsz6USD1pSZhS96eGLOZg5kOf8nQnnoUuyzOr9UQNaKGbuqWA47RNOiInlHLF+Ms4u/lI0rIcbx4R486ey/aL3d0hhe1iLF0uR2in85qTxIpWPA4ueb1JYZ49sOQTbINFrfyFpq7a96rWLhZfPZoV9WDAhGwZLnvYW24kxY6xx/Jlk/a/F9a/r2fcybjUVjm8BNw/ZfnEiV6yF/av4/5iyqDRrNHYmnpSs10jlWqKNVTm/eL2sZcti6CRv59Ij5Y2yABrNidvFrJDG7I5XHMRP7CSAduBgPpMVzvq855u59J61gPYJavh0pv+UJz2PTYDfXTNn8v6Ve9Ha6a4y5iKUTRQrzOJtJ0x1ldFZqOBFbxMhvckG2IxNQuF+bYijO//vsauBzeNetrkEzmPXAWs5RoSzCOjczkmIeveAbq+yDM7mjbNIXFX5HUT4IEwKSLan39sTYqlK0175MaVaukLN3QSF5TeKv6O3Xp8ZPq0RZpMMZdKBM/pnZZkgQlR6DXCCA6wJjB4zTmCqNLGukiGosYa0NHyBs4XLs14wvoydgL0N3K7WMF9ebaouBG8DhfOLM1zLZ9V5ojlu0scnHUBz+MJxceDKlaz2KoB70c4F0h+45k9/eIGDmoP3fvC7954juLle/PbNFO/hb/q4jYMeGRPGzgKcVQWnvBK8aKwLnelFVxS96FLZedE7ZV40hjsQ0gt2QYH+Zun5+2Od582ZcJ4jwnkih3gHE03cWes9s/oD/q2ATjIQPCkaiGZuLztA44g5pbnvcLqojrJjQPhuV1ge/7+h+HsPlru569D7105ppAboZLHdd2V/1wL6N6Y82ag+wxcJzqStnRYrLwHdiglfREptSmbCyy6f5PzicV9RufbU+fgxSgfQ2nj0cdGTviyBdFDhF6+DakQ8Dq0Q9TC02LP7wfkM8p6TgnPnPUeKFs7N7sxXMP54H+h3fAz0PDZR5kULk8Y2UPSi98NnR7RetH2mF71P7CxU8aLzbbZNL7Hd4Z+aOx3DKi87nFB44cE3zHyfENrA+POEDcB+myyD878a0IYawgA/kbUzOWcHaOwsVMr9xb/Nkx1DbSZ4fvJlsTMNOyMx/JGi8PtL8e94/DhoBmdFl3vtCPUfxP2oAVrNENA4GWmwwnZfifu8xoQBJ0ovo8lM+7WgH9A47PuZeDxKXx243nNxGTQMiWDM30Ol3fiy+1xyfnsz3UFFmFGyJdf3K+ndShHQWki7iTFphHRQkScQ3dgR4o3rPE8x/+yfq433PAj7LOVeSMG07OBs0KAUPd6zBtBnv4SJ7r1hwPE/obfbeOguetHtNF60duLYpZqJY9GLrpll+Dd60Ueh2GEc/p29F114u0Na6V1OMd1dTq8x975cqK/Vidb1tjieKbrgwGtNzvOfqwXPufHgTDiL3jOrxwE96V8LaPzUxc/yQCakfv2jshzCrYa4vew7tIwW7Vb4HcGAoC8uadtApjzZJw6GKcyUJyR9oTkvQo4wern1xf0pnUMXcT+5ATR6wXLPOl08TxhrLyoC8JJ43qT2N9MO5dYPaPSGd4jHo/SVgPHww+IyaDg9WUEmgF3Ji8ZjbCPuF5fD+S3lsW3cT7Nc36+kdytVQGvDHVjM/2zRNxBR1x4SRvwoXffxDeNJ9yMqnboXVup5doDOjfeshXMYN3sO6EnuPWGQ+0jo5zYW/uBedFfXqdDReabGi27usAB+1njRKzVetDB57HbuRcuKKKEXfUDrRbvoxKI/+9v1QbVDHr4mJ4O6So+1837PJt+tsrpQYOQKYG3GCWCWxJ01cM4A9MZ/I6C1njFmIuCEmZ8zobNQaZQgAlzrjRoCaKw/oeRZ4jItxWUQwMuZ4BlKl0FPGz3r6kx5RnL0an+TnYsvmTAJqrztuL42e0IfoBFaGIs/zYS6IlPF8ya/Lq9EmGK2C3Yc1mQ4ca1QW2OtxDCuXVZsmzqgM9ufsywO4UvlosLyeLw4W3VRsW0XFJbxz+WdSnof0gtoNBzE4v/FSwirvR1i2taHJNMsEzY+TTar9TCmxc674Z9H3wop+E68Zy2gp3j8AUPch+v1ohvZLxO96A06XrQwu7dQREnuRRff55pWep/rpV4e55eYnw/PMt3WWGv/T9tvdW5VfsrWA0V7ztYMRskEdFY4s3pG/1ZAx4kglXYAIniURgnmFNCYghepsMwthrNjC8vgLOFOCstgZkUJEXxK7T7HBO+5pcwQhC8UlsciTvoAjbNQ44sJY90VM86H+jBtfPHgrOpW3FYzIZyBnjSm3VVguil07wLQxZmQW630ErQVzy3GoxMVfh+isz3SxyO9gEY4e4mx6JAS3Iuu5gMxrUZCfF+dmbYfJ47sdye8nMOt8HIPkhUAnfAW3nMoN4dzX4KpZ3cY5jFE40X3lXjRHbgX3drJXPSicfj3St3h3xb7M4socS9aO/y74H5XKHfEPaWWlfehEf6XW5qeDc1IyTI/fjF/r32eVZqst59abdHhS4Wm7gQ2cg2wTlOFnGdZaONfDmj0FOvLtllMBXI5A7Sw3FKFZTDMcUgEZh8mhFfkHirOxoze9TqVdmMIIUrB7iqAEG0cUwc0tgdDCLo1RAQvNJQpx4blhjFwDH1sYMLLo5RkO3kPaGEdfIGEKayDqYAYOjrKdMMgGI/WeZZJH5H0xqDdRTgHSSy8cgpEfrcKrnf/AZLNCmq38zjFPN+jm+Mq3YtttyA1vMKl5NBi6XnlPQuArgLTPX+HkR7GMJh70UbHR0PvY+Ohm+tk6OQyHYTh3+hFC8O/tV60phSppeBFa4d/FxOLKJWycH9V2crLp7PHuSnGfpdLSs/LWLtThXof9O741RKLHRXmH3zKJu8ANmk7MJNtwIavAtZOzN6QwfkdAxqr3JVUWU8foGMky6kB2knzkOtuN68AjVkYSnFV/OzG7IjZCr+j140dg/mYkAaYHRgNsblMHdCY+60+I7vRohkifHOyPywnit5/9p2EmfvJDaAxdDNPpQ3YiaiUPvmXnjuR9DFIEdDWQm1oOC+Ds9ZCS3Jv+itHiOs+AhKMsxRmf5RkUvR+XI+OqZFVtydHVLidHaANgXNIKANHDuiZXl3hT8+Bghd9XOtFm4hetJkBXrRQRKnUERuoYuN2tY6T34buPhd/NguMKCw9hmlu5z/rtPf4lKrLjgYWNtsDzJR7zlMkgJ64FZjxUmAtxgiZGxI45wGg1T6ls4JRdz1MI0tWWAc9Pl/Jch8K0IWYcs0ODCmgp3lY4bctTDtARChf+q4BjSGAYXquTTkmfAkE53CfGB/+RtzGuwI05mi3YEKoSr7eK4V9PspoE+njlSKgHYXa0Ipw1lpwIe5NV0mA6PprIWmKzoipewl9y92ObWGSHFn1ZGJ4qVfZec/StDpFQJ+vDLO8O8MYLyMYIXrR/bkX3evYhAwvuq3oRWMRpYaSIkpfS4oo1bC1elrH0cWxnYdfvwnngnQ+70xcz7aoscZmT5VlR++ymbuBTd8FbBoH9FQO6Mkc0JO2CZCesAVY3wXAmgzPAuc8ADSOclOqrwziwzdQYR2M8e5TgSl+tm+XLPuhAI0AGa7SvjgFsGDoInOQh1DrQ75umgi/KTmwJrkGtNCOkkyIY6O3irHqE0wII6i9VLWAbMOEPO53A2hhPUwFVAsFyS0zVZL08UoH0HaSmhz6AJ3hTZd5mR5e2S09wVin4PiDZNNPbsd1aZJyrcG6xIhKyXGhBXPlPWsBPce7E4z36qfxood6DIWBx0dxL3qcxovuIvGimzkKw7+1pUhx4Mo3NrvSGzlZRHb0cJ03wN/vx0VBIVluTnOfy6V7HPGZWWGl5ZniCw+mawogofc8g0N62i5dLxpt3CZgv88A1mhw3gEaJRQcUoqfYorUMW7NGcZlhWXRqxvN1EcAYsfRUMm2PwyghWWrMmUvX8lwCHdNybpDVQCN50O3/oWQjYJfFWYya5YrQAtZGlhlrodoGFKaIB4/xpkHcFvFdOPoWsM0uqLvGND4AujOlHPF5YZhJSpm9bErC6Ax7uzB7ZKBcOaWzi0tuCC8CSuf+Ca68fY3yWY6HSx3bhhXTIltOTAx+psTcWGfvpZ6z/JBKUqADubmxAE916cjmHj3hjGe6EUP1vGif3OZIXrR87N40Y0dtz/p5mnl1NvbubP5pbOfydtncvzCr99scjhSfpXl7XzSodwIaK0XrQX0ZAmg0f5cJ1Sxw87CvAP0n0y5Rx4N47QXxQcd61xgHQX04NRGuN3PArAPC2jMxthvIKDnM2m5UiFNTCn+i4ND0JuV1srAFMHdIvjuyExfFoc+QPcSjztCYniMs8Tf8QsB0/u2qxzP0DwANMbI8aVTT1zmC4V24ovkUDbnFjNf3k9BKdLbKQugsQ7HhRzCmdsbbq+5vQop8fxlxJd+rxOMR8v3cz/FrGhybIvaSTHNN8ZFVLgTE1LAIO85OAPQlWC+TweY7N0TxnEvehR60e5DYQD3ojXDv48JRZTaS4ooNXVYnt7RbVvCED9rswmn3WqtCTmf1Wv2Cyr1h43fzIrrbQKLLj38Mt+CA8Dm7wc2VztiEIvwoxetEubQ2uBlwJoMy0tA44ALpbS03Ng62bY/JKBxsERnA9qcKrazgGzdAwrLpovL2zMhvoxgxw5FpZBDdnnQ+gCt1HmLoMUvl0VM8JBx/0rxafzywVF/CHFDAN2FKWdkoGH4C4ePY4fwzwrtxFj/SKY+yAhNyI0mffzKUm40wHA4SwGtgTO3l9xeBBd88yLs85svrjbd8SrZrJp8f7duGJdLut6+R3xUjeCroYXTDfGeg0RAL/RpB6Y+PWCid58ML9rYfQT0dxsjetFTRC96Dre/Xo/w23tqlP+Rlsuu+OgUjjfxCmzy455jlmXWWd8psPRwGvvrILCFIqDlXvQMmRctBzTGo3vMErI68gLQqNzXnJAaPsjlZNv9cIAWlq8q/qav3Zi7q5TqVo2pZ6q8FKGMEFX7mlgnbic3gEbvF2s4y9PsMIb+QIQspvYpffnggJea4nYMATSOhnQz4Pq2VGkretjHVNbBr4g67H2WgyXlXhmA9sxB3FnJe9YCmtuzoHzwNLT402dRNc8/v2FsLN/n3RSzwglX63yZeL390ejQos+z854R0M7nK8Jfvm1huk83iRc9SPSi/xS96Enci54Gf7gteDrn/OHlU84cqbwt3C/LQAHzgJASvR1PTfpqu1NYoVVHX+RbdgTYkkOQAegF+3WLImUX5tDGo1uNFWpx5A2gsWZwz7eANJalrKuw3Q8NaPRgV2XT9jFMycMT0u2a64G0PkNgfSFuRw3QuN0Beq5JK6a/M1DJcOqvPhnHYxigMe97mgH7UgM0etGzVNbB0A/lPv9bpAG0fS7izipwfo6ADmbwlNuTkAJpT8K/uPvk2s9rnsZ114mXJSf0LZF0Y4DJ1cgqDyNC8ql6z1dEQC/xbQ0zfbvAVO5FT+Be9GjPATBc9KL7uWERpQkw8eSqu8suHfltXbCTztxtJr6X6/x0xPNoqc12/+RffTSNreBwXnaYA5rbYg7pRRzSqmEOsbMQB6sohTnQhq0UZlTJC0CjhAdNnzekZDg6bwETRrHpdgLlHNBb8xjQCNmmTD2fGAeD/KrnnGBHGMaj9+vZhtL5KC/ZhhqgEZ619Oy7oAjpswZeCzwWfMlK641kD2hhObx+a5jgnecU0Dj0e6fKOp2Ytqof6eOXBtCn3gGcuT3m9k9wPngUUuTN46t1fJ7dHKtTlCU1yaRAStLYr+Nim99Q854R0C4XKsCyE61g9olOohfdi3vR/WGUR6YXvTJw+6nJAWuK7I04pgOmvm5nf6t90D0y3zrrNLbWCtjqo8BWWgBbziG9VAS0wWEOFUCj/T7j7arZySUADb3pb5kwUAI7BtE7Rm8PJxsNEv8fi+f0Y0IHWQE928MC9ksUDIvfK3U6IZT6y5Ydz7ShE6NFPzLB25NvD5cppbM9YZ0vGA4IUW6HMcuuA0s4Jxhy+IEJA1wcxPPwUDwveD6wMNBoJqSeyYdb4wjJsbL9DmNCRoz+T//M64E5x2vFfV0W9x0n/j920mEBo8+Y7mQBOKpvsWzfM5l8FGfmuW8jwhZzyLWjJgOY8OKsptLGtkw5Fo51Q77We3ykj0sQWOvBW8edtXAOksOZwSNuD8W60Q8jq/3zKLb9lMc3x5V8nGSi8yAkJhjZhobmey33ni+LgF5xogWYn+jIveiu3Iv+AyZ49YUxngNhnM/ol9tDds8+EGGR5UE09rmYb6zflSrtHQPWld/j8opttAG2nsN5raUA6FUc0BletAjoRQcywxxz/86ccxC96OlaL1olzCGGOurP2xv4/q4giSSREB4xUYAzxs6x6FOJD91EUg4E8X398iburB/OGXWjw0qlPYhpZvEowajOw/i+WYCalGxS4EaisWlYeMkHwaEF0uWAXun3K8zzaw+zTnSGaT7dYYpPnzTzUxNTdwRv+sPmqmWWDA0j78BCXd3O/NzM3u98sR2O6WyzLWgAvcEa2DoO6TUIaNGLXibxohdJvOi5Cl60Jid6h14vevRRv+nv9yqSSKKELy07BUBjB+gvH7p5pBwK4vt75XVoQwpn7awr8prR96LrRd6LadHhfnzPLNXxklPNCsXf6Nc1Irr69SthBdMRzpcQ0BfLwxr/ZrDQv63Gi57t1+PN2gumgQdC1//qHGOZJaY2MuBKmRbOAQO+s/J+oKnxvBUnhcWprGwFQEu96JWiF730sP7OQnlOtB4vmgNavZ4DifSuJKTxYfaPUtwaQyKVPnQTSTkU3Bi1Oe/jzgKg5VNiyetF34qs+vRWdJ0/798YUuWBJOSRkmpeMCau7a9hUV+FXAkr+iYwFKe8Kg/r/H+Bxf6t4a+TXZ5uujghYE/QXJ0shQH+l75t5hKw9LODbm8yJoTdJgJa40UjoLlhHHqNpW6YY7E2zKHSWagJc2QDaEs/3fxUEuldS8ifX6wAZ8wE6qu3b4L0cQpumvSC4IIGA9rQuHN28xVqy5EmhRZLv3Xtp313EnrrQO3q9db1wq/VvnAprHD6MQ7oDf5NYOWp9q92XRpjZxu5vLZ02YVXwoq0cj/1a7Njp85knSlFMtfgZnGuwYwwh2X2nYWqYQ6Fod/cSs7Y87LUzD1F3t8VJJFECeENG7GjVGo4sWzt7DdA+igF4ZWf52Xc2ZDJZOX1olOuNYy4db1jh/up5hkhj6RU88LR11t2CY6qEuZ2sSJsDWiWviuw/0mL0GlZYmmLrlwu087dZ/CPjj532H7XzJlSdjsJU1ltl3jRWkDnNMwxWyEnWsGLbrnRMbrDVufCumeZRHrHEjJ4tHVCpIZ1ST750M0j5VIQ2/FUXoQ25HHnezmcqzAp+vvkpJifx95LNc/IG01MNfs0Iubnye6Xf3i071zHhCPBI/pJ277oyrlKrdxczGrZOT4oqinE76o7lZVOmMNGFubgkF6BXrShOdHqQ7977Dq+ZOhhH8ozJZFIeSNIGNoTQj5Jy1FKnULcWQ5nqfds2FRY+SA+ovyDxGuNTe6mmme88WMTB9T1CGrnbHnht72+saszBj8sDTpV5TcPu+XVbY48KnPEQijEr51vUDHMYZ+7MEe2Q78FL7qC+f5/OmxxqWXucp6G0ZJIpLwRXG1cCKLqehviPavFnfXBWeo965unMFZj+eF6RLnbN641mnpHhPTNVPPC7sGdB7hcaTdI2+ZVwX5fdvO0WFnbbu+9SpY4W8ph+PSwNRQ6yGEsD3Nk8aJFQG+UhTm0XrR06LdqTrRunejCU3ZC83X2G7rtdKNPSRKJlHeCmybcdTVqAxHVUw0NbeRF3Fk+y4q2BOm1kPzpsRHlk25cb5dRY/pkVK/y3DRpQtvC/T7p53NgfmPHbbdrWG+DKpa74QuLA1DyiCUUOWSnMyFsBqClnYUbZV70KgUvWp4TPUfrRe/ODHOIOdG1Fluc77TN9VvynkkkUp4LrncvAjFtRkNEtfvpbxl3Vkqp0xfaUCziH1owLTay6sWUm2Obyttqds6mX4djW6Lr2mExfmHOwfJH90HpIxZQ/LCNZtbujDDHXidZZ6FdphetBbS8s3CZrLNQKcwh6SysvvhISLddbj3HWvlTCUcSifRuBLEdi8O15mPTOaSlgM4pnNVS6gyGs1gjOjqs+JPYqz9skLZxZ7hH+V4eGw41c1zxCieG/dZmo2bOwUpH92omhf30sBUUPuSQ6UXrdBZyQG/lgN5skzUnerVl1jBHhhetDXNwM9d2FmYCuvrSoyGdd7n1H3HUT6c4E4lEIuWp0mM7fpoW02bo66jvI18FF87iPec27pycCzgLJUjzQ3RE+eCkxBG/ads3++z+kd2Pr0xo4rBYMzFsbZv1UMN6qybMUc5iP5Q6chSKHrKD/JrOQlf9YQ55Z6HBYY498Mm8/Wnfrrb26bLn+O8jLP0o7kwikd6P3iQYF399/fdfXkU32PUi7IsXuRnKndO4s9rsKhHhJZ/FXK23Btt1MOrYp73d/9raznn+m18cFkEju+Xwo+1azZyDVa12QoWjf0OZI0fgE02Yw1EEtDwn2j6HYQ5uCw9myYmuvMLybvPtLqu6/u3+g4njaRqUQiKR3q/eJJsVeBXbsezL2A6jn0dWjdUH55ym1Mln95YDOkvx/tD8EBFZziM5xfT7dVcOdxvsvSQE5x381XGBZmLYerarNDN3V7faDpUt98DnFgehhKaz0F4lzCECemt2OdEyL3rBASjEPemqa6zPdz/k1auvhW9pc49AmnSTRCJ9OL28YVzkRcKA5s+uNjj+OLTEG0PjzhmhjeCcwVk+uwqWHg2PrHTrenyPSRP9l84y8jB/0cF5pmbewaYOi6GB3Qr4wWYd1LDeAl9a7oLyR/drOguLHbaFAgedM73oPc66Q7/lXrQ8J1rSWVhm5dEXv+xxO9TjiHd1E5ezNF09iUT6OPQy2TTfs2tNCj2L6znnn/Byd942pc5QOGuL94dGlHoderXxNmOPaet6HJsMnVymQxunOdDcYSE0slummbn7G+tNUNVqB1Q8+jd8ps2JPqSQE42A3qEQ5tCpEy10FhbgVnmDXdwIpzPD2u73KGTufYnS6Egk0sep58mmv/xztd6ZB6HFXudkKHe8ivdsyKzeWBfaP6xB6LSTcy71PDZRM3t3O+dZ0MJxPvxsv0QT5vjeZgN8bZU1Jzqjs9CQnOj1WTsL83EvuvhqyxetDnm5m5+4QlPUk0ikf48ex3Xfdi+0xO07wQXSs0upU4Oz3HvWNyehe1D9Z2b+E5/2PjZeM3t3x4wwx1/QUBPmWAs1VXOipZ2FkjCHSmdhwbVWaV9ssksacezc7A99nkkkEilXepJk0vNuZLWg26HFnyt5zzlLqZN2DOpOeWV57ksY594H+rmNhR6uJpowR1un2dDccQE0tl8GQk70puxzonfLcqK3iDnRHND5N9hAsY22Txod9Dhr5h9U70OfXxKJRHorPUkxL/cgrvv+1NBPU5JDCuhNqYvNQdxZC2jtjCpWHNATPHqB0fE/odexCdDVxRTaO5tBS8d50MQ+u5xoJzHM4aIa5iiyxS7tix1OcQPczq790OeURCKR8lQPEkeOTg7/7FxSWIlXanCWe8+GwjlQBLSJR08Y5D4S+riNg26uk+E35xnQ2skcMCe6YbY50SKg9zrphDlK7nL6p8aB4z4jvC52MT0ZRKlzJBLp/0uPUs3z3U8cXv1WzE9Hb4aXvZ3AvencpNRJQxtaOF8UAT3ZowcMdh8O/Y+PgT+OmUBnl2mgmxO9MWtO9GFLKHxQOSe68C7H9NJ7XWLbOp7c1Nf9XNkPfQ5JJBLpneruDePSt+M6z0uMqHQ5Pqx4Wk7izlpAX5F5zwKgq8BUz24wzGMoDNCGOVynQgcMc8hyomtab9XkRJc7imEOsU70waxDv0vtP/b8qyMeJ7ocOzPUJCC45Ic+byQSifRedD/ZtPituN87JUbVPBoXXvZ+TA7izkpwvsDNmgN6mufvMMLDWBPm6Os2FrpjmEPMiW7muEg1J/oTTZ1oR2Dciy6w3wU+O3w8oaGD385eXhcamV+IoEEnJBLpv6fUhL5Vb8b8suh6+OeRV0MKKA/lNgDOGkCfrwwzvLrAn54DYYj7MOjvNhp0cqIdlmQM/cacaG2YQ1snuvhh17SKVp6BzV0DJow9HUxT0JNIpP+2bieZlL1xrUnf65FVPa6Gl3xpSEqdHM5oNhzQs7w7wxgvIxjmMQQGHh8FmBP9u4E50RWsHP/50cnHpsmxU+3MAiM+/dDnhUQikT4K3Uk1L3TjevuGcdca74oKL31XHncOysZ7RrPlgJ7j3QnGe/WDkZ7GYOw+QsyJniTJiV6YmRNtLeREV7H8G2rYWt1ofdxr8cCT57//0OeCRCKRPkol3TCudj2mqUlURIWo0NBC6YbCGc3ufCWY69MRJnr30YQ5hnoM0+RE95TnRIt1or+3WQ/f2W5Pa+ZqeaW1m3PPmRcDabg2iUQi6VNKsmnJ2Nhm7a9eq3MmJLzoa0PgjGbPAT3fpz1M8u4JY736w3BNmEM5J7qR/XJoaL/hRT8fG5duXvYNlgdfKvyhj5tEIpH+FUpNNS8Ye711rZi4tgeDw4o+U4s7ywG90KcdTPXpAeO9+sIoz0FCTrRbZk50OzEnurXzmidjAmzmTz7rVvVDHyuJRCL9K5WQaPx5bEKPZUHhpZ9mB2iH8xXhL9+2MM23G5h494bRngNgqLtuTrSR17rHM8/ZjFkR5E25zSQSifQ2upE0tnhcovGQy+ElX6nBWQPoCxVhiW9rmOnbFSb79IRxXv1hhMdgGHQ8Myd6mO/y54sCLRtsDPWkaahIJBIpL5SYYpo/IXlC65CrtZ6rAdrxQgVYdqIlzD7RCUx9esAEsbNwiCbMMRrmnFkfvynE6oe9kZ5UUJ9EIpHyWglJE2oGR9d8dCE0X7oc0E4c0Cv8WoD5iY4wXRPm6KXJiR7uMTR94bnl15ZfXE+1NEgkEuld6Waqeb64m8N/DI9pFH0xrGCaFNDOHNCr/JrDPL/2YObbBab4/AETvQe8XH1xie+2oM00KpBEIpHeh6LjOlYJj/npPId0hiftfLE8rPFvBgv922rCHDNP9Hq1MXDeoUPh2yt/6PaSSCTSf0qh0d99HxT1ZYQW0i4c0Ov8m8Jf/q05pLu+2Xhxkt/fwUt+/NDtJJFIpP+cbqaaF4qIbdL5SmS5BAS068VysOFkE1ge0CZ90/khV/Zemd7sQ7eRRCKR/rOKTTT+LOxaffNL4SWeHuOA3nTyJ9h07vfUvy+PGep9/W9KpSORSKQPqWsJveqEXv3e3S2wIuw83fzN/ssD9xy/tqbah24XiUQi/ed1M9W8cPi1hsM9rvz44ND5Ttdsw8b1/NBtIpFIJJKo2MSBP3gGtbOzudBhp9/1VRU/dHtIJBKJJAo7DD2COrV1udSm3YduC4lEIpFkuhAz+HNuVNOZRCKRSCQSiUQikUgkEolEIpFIJBKJRCKRSCQSiUQikUgkEolEIpFIJBKJRCKRSCQSiUQikUgkEolEIpFIJBKJRCKRSCQSiUQikUgkEolEIpFIJBKJRCKRSCQSiUQikUgkEolEIpFIJBKJRCKRSCQSiUQikUgkEolEIpFIJBKJRCKRSCQSiUQikUgkEskA/Q8t8AdkQkHXPwAAAABJRU5ErkJggg==;" parent="1" vertex="1">
          <mxGeometry x="390" y="560" width="80" height="40" as="geometry" />
        </mxCell>
        <mxCell id="dPImJpLXpQVnMfvzIG0--2" value="&lt;b style=&quot;font-size: 14px;&quot;&gt;&lt;font color=&quot;#00cc00&quot; style=&quot;font-size: 14px;&quot;&gt;Total: $1500&lt;/font&gt;&lt;/b&gt;" style="text;html=1;strokeColor=none;fillColor=none;align=center;verticalAlign=middle;whiteSpace=wrap;rounded=0;fontSize=14;" vertex="1" parent="1">
          <mxGeometry x="70" y="360" width="100" height="20" as="geometry" />
        </mxCell>
        <mxCell id="dPImJpLXpQVnMfvzIG0--10" style="edgeStyle=orthogonalEdgeStyle;rounded=0;orthogonalLoop=1;jettySize=auto;html=1;fontSize=14;endArrow=none;endFill=0;strokeColor=#000000;shape=link;" edge="1" parent="1" source="dPImJpLXpQVnMfvzIG0--9">
          <mxGeometry relative="1" as="geometry">
            <mxPoint x="480" y="440" as="targetPoint" />
          </mxGeometry>
        </mxCell>
        <mxCell id="dPImJpLXpQVnMfvzIG0--9" value="&lt;font color=&quot;#00cc00&quot;&gt;&lt;b&gt;Accessible Information&lt;/b&gt;&lt;/font&gt;" style="rounded=1;whiteSpace=wrap;html=1;" vertex="1" parent="1">
          <mxGeometry x="500" y="490" width="150" height="60" as="geometry" />
        </mxCell>
      </root>
    </mxGraphModel>
  </diagram>
</mxfile>
